<svg xmlns="http://www.w3.org/2000/svg"  viewBox="0 0 64 64" width="64px" height="64px"><radialGradient id="KWuICB_XwNBqiFKEVaAafa" cx="31.873" cy="38.138" r="50.707" gradientTransform="matrix(1 0 0 -1 0 66)" gradientUnits="userSpaceOnUse"><stop offset="0" stop-color="#afeeff"/><stop offset=".193" stop-color="#bbf1ff"/><stop offset=".703" stop-color="#d7f8ff"/><stop offset="1" stop-color="#e1faff"/></radialGradient><path fill="url(#KWuICB_XwNBqiFKEVaAafa)" d="M58.5,44H48.412c1.138,0,2.202-0.721,2.497-1.821C51.355,40.516,50.096,39,48.5,39	c-0.828,0-1.5-0.672-1.5-1.5s0.672-1.5,1.5-1.5h2.912c1.139,0,2.202-0.721,2.497-1.821C54.355,32.516,53.096,30,51.5,30H51	c-1.105,0-2-1.895-2-3s0.895-2,2-2h9.412c1.139,0,2.202-0.721,2.497-1.821C63.355,21.516,62.096,20,60.5,20H59c-1.105,0-2-0.895-2-2	s0.895-2,2-2h2c1.848,0,3.319-1.693,2.94-3.605C63.657,10.972,62.32,10,60.869,10H52.5C51.672,10,51,9.328,51,8.5S51.672,7,52.5,7	h3.912c1.139,0,2.202-0.721,2.497-1.821C59.355,3.516,58.096,2,56.5,2H8.588C7.449,2,6.386,2.721,6.091,3.821	C5.645,5.484,6.904,7,8.5,7C9.881,7,11,8.119,11,9.5S9.881,12,8.5,12H7.588H5c-1.65,0-3,1.35-3,3s1.35,3,3,3h21	c0.352,0,0.685-0.073,1-0.185V30h-7.412c-1.139,0-2.202,1.721-2.497,2.821c-0.219,0.817-0.024,1.595,0.418,2.179H2.5	C1.119,35,0,36.119,0,37.5S1.119,40,2.5,40h1C4.881,40,6,41.119,6,42.5S4.881,45,3.5,45H3c-1.657,0-3,1.343-3,3s1.343,3,3,3h6.5	c1.381,0,2.5,1.119,2.5,2.5S10.881,56,9.5,56H8c-1.657,0-3,1.343-3,3s1.343,3,3,3h48c1.657,0,3-1.343,3-3s-1.343-3-3-3h-0.5	c-1.381,0-2.5-1.119-2.5-2.5s1.119-2.5,2.5-2.5h3c1.933,0,3.5-1.567,3.5-3.5S60.433,44,58.5,44z"/><linearGradient id="KWuICB_XwNBqiFKEVaAafb" x1="32" x2="32" y1="32.149" y2="212.69" gradientTransform="matrix(1 0 0 -1 0 66)" gradientUnits="userSpaceOnUse"><stop offset="0" stop-color="#ff634d"/><stop offset=".204" stop-color="#fe6464"/><stop offset=".521" stop-color="#fc6581"/><stop offset=".794" stop-color="#fa6694"/><stop offset=".989" stop-color="#fa669a"/><stop offset="1" stop-color="#fa669a"/></linearGradient><path fill="url(#KWuICB_XwNBqiFKEVaAafb)" d="M55,25c0,9.389-10.85,16-23,16S9,34.389,9,25C9,18,20,5,32,5S55,18,55,25z"/><linearGradient id="KWuICB_XwNBqiFKEVaAafc" x1="32" x2="32" y1="-14.206" y2="38.55" gradientTransform="matrix(1 0 0 -1 0 66)" gradientUnits="userSpaceOnUse"><stop offset="0" stop-color="#ffc050"/><stop offset=".004" stop-color="#ffc050"/><stop offset=".641" stop-color="#ffbe75"/><stop offset="1" stop-color="#ffbd85"/><stop offset="1" stop-color="#ffbd85"/></linearGradient><path fill="url(#KWuICB_XwNBqiFKEVaAafc)" d="M14,27v16.816c0,5.472,3.337,10.158,8.085,12.151c0.923,0.387,1.777,0.906,2.567,1.52	C26.682,59.062,29.231,60,32,60s5.318-0.938,7.348-2.513c0.791-0.613,1.645-1.132,2.567-1.52C46.663,53.974,50,49.288,50,43.816V27	l-13-4h-9L14,27z"/><linearGradient id="KWuICB_XwNBqiFKEVaAafd" x1="12.5" x2="12.5" y1="-15.715" y2="34.957" gradientTransform="matrix(1 0 0 -1 0 66)" gradientUnits="userSpaceOnUse"><stop offset="0" stop-color="#ffc050"/><stop offset=".004" stop-color="#ffc050"/><stop offset=".641" stop-color="#ffbe75"/><stop offset="1" stop-color="#ffbd85"/><stop offset="1" stop-color="#ffbd85"/></linearGradient><path fill="url(#KWuICB_XwNBqiFKEVaAafd)" d="M13,44h1.887C16.606,44,18,42.606,18,40.887v-7.774C18,31.394,16.606,30,14.887,30H13	c-3.314,0-6,2.686-6,6v2C7,41.314,9.686,44,13,44z"/><linearGradient id="KWuICB_XwNBqiFKEVaAafe" x1="51.5" x2="51.5" y1="-15.715" y2="34.957" gradientTransform="matrix(1 0 0 -1 0 66)" gradientUnits="userSpaceOnUse"><stop offset="0" stop-color="#ffc050"/><stop offset=".004" stop-color="#ffc050"/><stop offset=".641" stop-color="#ffbe75"/><stop offset="1" stop-color="#ffbd85"/><stop offset="1" stop-color="#ffbd85"/></linearGradient><path fill="url(#KWuICB_XwNBqiFKEVaAafe)" d="M49.113,44H51c3.314,0,6-2.686,6-6v-2c0-3.314-2.686-6-6-6h-1.887	C47.394,30,46,31.394,46,33.113v7.774C46,42.606,47.394,44,49.113,44z"/><linearGradient id="KWuICB_XwNBqiFKEVaAaff" x1="16" x2="16" y1="42.73" y2="11.722" gradientTransform="matrix(1 0 0 -1 0 66)" gradientUnits="userSpaceOnUse"><stop offset=".122" stop-color="#5e6d7b"/><stop offset=".191" stop-color="#5d6b79"/><stop offset="1" stop-color="#515c69"/></linearGradient><path fill="url(#KWuICB_XwNBqiFKEVaAaff)" d="M14.908,44H14V27h4v13.908C18,42.616,16.616,44,14.908,44z"/><linearGradient id="KWuICB_XwNBqiFKEVaAafg" x1="48" x2="48" y1="42.73" y2="11.722" gradientTransform="matrix(1 0 0 -1 0 66)" gradientUnits="userSpaceOnUse"><stop offset=".122" stop-color="#5e6d7b"/><stop offset=".191" stop-color="#5d6b79"/><stop offset="1" stop-color="#515c69"/></linearGradient><path fill="url(#KWuICB_XwNBqiFKEVaAafg)" d="M49.092,44H50V27h-4v13.908C46,42.616,47.384,44,49.092,44z"/><linearGradient id="KWuICB_XwNBqiFKEVaAafh" x1="31.995" x2="31.995" y1="41.511" y2="12.327" gradientTransform="matrix(1 0 0 -1 0 66)" gradientUnits="userSpaceOnUse"><stop offset=".122" stop-color="#5e6d7b"/><stop offset=".191" stop-color="#5d6b79"/><stop offset="1" stop-color="#515c69"/></linearGradient><path fill="url(#KWuICB_XwNBqiFKEVaAafh)" d="M45.54,45.088c-0.776-1.122-2.327-1.404-3.463-0.644C42.046,44.465,38.93,46.5,32,46.5	c-6.832,0-9.957-1.978-10.074-2.054c-1.121-0.779-2.665-0.514-3.46,0.601c-0.803,1.124-0.542,2.685,0.581,3.487	c0.158,0.113,0.807,0.551,1.994,1.056C21.023,49.726,21,49.86,21,50c0,1.657,1.343,3,3,3c0.781,0,1.487-0.306,2.021-0.796	C26.128,53.764,27.413,55,29,55c1.657,0,3-1.343,3-3c0,1.657,1.343,3,3,3c1.587,0,2.872-1.236,2.979-2.796	C38.513,52.694,39.219,53,40,53c1.657,0,3-1.343,3-3c0-0.14-0.023-0.274-0.041-0.41c1.188-0.506,1.837-0.943,1.994-1.056	C46.064,47.74,46.317,46.212,45.54,45.088z"/><linearGradient id="KWuICB_XwNBqiFKEVaAafi" x1="25.5" x2="25.5" y1="36.356" y2="19.667" gradientTransform="matrix(1 0 0 -1 0 66)" gradientUnits="userSpaceOnUse"><stop offset=".122" stop-color="#5e6d7b"/><stop offset=".191" stop-color="#5d6b79"/><stop offset="1" stop-color="#515c69"/></linearGradient><ellipse cx="25.5" cy="37.5" fill="url(#KWuICB_XwNBqiFKEVaAafi)" rx="2.5" ry="3.5"/><linearGradient id="KWuICB_XwNBqiFKEVaAafj" x1="38.5" x2="38.5" y1="36.356" y2="19.667" gradientTransform="matrix(1 0 0 -1 0 66)" gradientUnits="userSpaceOnUse"><stop offset=".122" stop-color="#5e6d7b"/><stop offset=".191" stop-color="#5d6b79"/><stop offset="1" stop-color="#515c69"/></linearGradient><ellipse cx="38.5" cy="37.5" fill="url(#KWuICB_XwNBqiFKEVaAafj)" rx="2.5" ry="3.5"/><linearGradient id="KWuICB_XwNBqiFKEVaAafk" x1="32" x2="32" y1="19.234" y2="50.321" gradientTransform="matrix(1 0 0 -1 0 66)" gradientUnits="userSpaceOnUse"><stop offset="0" stop-color="#ff9757"/><stop offset="1" stop-color="#ffb65b"/><stop offset="1" stop-color="#ffb65b"/></linearGradient><ellipse cx="32" cy="45" fill="url(#KWuICB_XwNBqiFKEVaAafk)" rx="7.636" ry="6"/><linearGradient id="KWuICB_XwNBqiFKEVaAafl" x1="24.996" x2="24.996" y1="37.199" y2="32.66" gradientTransform="matrix(1 0 0 -1 0 66)" gradientUnits="userSpaceOnUse"><stop offset=".122" stop-color="#5e6d7b"/><stop offset=".191" stop-color="#5d6b79"/><stop offset="1" stop-color="#515c69"/></linearGradient><path fill="url(#KWuICB_XwNBqiFKEVaAafl)" d="M21.847,29.296c0.064-0.02,0.127-0.039,0.188-0.055c1.368-0.37,2.796-0.263,4.153,0.088	c0.62,0.16,1.213,0.362,1.793,0.618c0.582,0.275,1.139,0.526,1.748,1.118c0.338,0.329,0.322,0.846-0.036,1.157	c-0.273,0.237-0.667,0.284-0.988,0.147l-0.27-0.116c-0.23-0.099-0.732-0.254-1.2-0.321c-0.481-0.077-0.982-0.114-1.47-0.113	c-0.948,0.003-1.815,0.122-2.545,0.76c-0.67,0.585-1.787,0.537-2.479,0.033c-0.653-0.476-0.858-1.234-0.635-1.989	C20.308,29.936,21.17,29.508,21.847,29.296z"/><linearGradient id="KWuICB_XwNBqiFKEVaAafm" x1="39.013" x2="39.013" y1="37.187" y2="32.666" gradientTransform="matrix(1 0 0 -1 0 66)" gradientUnits="userSpaceOnUse"><stop offset=".122" stop-color="#5e6d7b"/><stop offset=".191" stop-color="#5d6b79"/><stop offset="1" stop-color="#515c69"/></linearGradient><path fill="url(#KWuICB_XwNBqiFKEVaAafm)" d="M40.486,32.356c-0.072-0.044-0.145-0.087-0.221-0.129c-0.558-0.312-1.206-0.431-1.845-0.44	c-0.535-0.007-1.067,0.059-1.595,0.137c-0.241,0.035-0.476,0.081-0.711,0.145c-0.155,0.042-0.392,0.183-0.549,0.183l-0.268,0.115	c-0.446,0.191-0.977,0.015-1.186-0.395c-0.159-0.312-0.083-0.671,0.159-0.908c0.609-0.591,1.166-0.843,1.748-1.118	c0.58-0.256,1.173-0.457,1.793-0.618c1.148-0.297,2.355-0.408,3.529-0.205c0.986,0.171,2.242,0.508,2.582,1.578	c0.119,0.376,0.099,0.784-0.053,1.148c-0.265,0.63-0.886,1.046-1.554,1.132C41.56,33.08,41.072,32.711,40.486,32.356z"/><circle cx="32" cy="17.5" r="7.5" fill="#fff"/><linearGradient id="KWuICB_XwNBqiFKEVaAafn" x1="32.031" x2="32.031" y1="10.532" y2="109.09" gradientTransform="matrix(1 0 0 -1 0 66)" gradientUnits="userSpaceOnUse"><stop offset="0" stop-color="#ff735d"/><stop offset=".137" stop-color="#fe746b"/><stop offset=".486" stop-color="#fc758a"/><stop offset=".783" stop-color="#fa769d"/><stop offset=".989" stop-color="#fa76a4"/><stop offset="1" stop-color="#fa76a4"/></linearGradient><path fill="url(#KWuICB_XwNBqiFKEVaAafn)" d="M14.421,23.449c2.191-2.331,4.96-4.08,7.955-5.317c3.003-1.225,6.263-1.92,9.573-1.996	c3.306-0.082,6.673,0.463,9.799,1.692c3.112,1.233,6.016,3.16,8.075,5.789c1.054,1.345,0.818,3.29-0.528,4.344	c-0.843,0.66-1.921,0.814-2.868,0.506l-0.249-0.083c-2.44-0.814-4.704-1.421-7.019-1.787c-2.305-0.372-4.626-0.519-6.977-0.464	c-2.351,0.052-4.725,0.309-7.135,0.738c-2.419,0.418-4.843,1.035-7.468,1.681l-0.155,0.038c-1.665,0.41-3.346-0.608-3.756-2.272	C13.41,25.264,13.736,24.189,14.421,23.449z"/></svg>