<svg xmlns="http://www.w3.org/2000/svg"  viewBox="0 0 64 64" width="64px" height="64px"><radialGradient id="XA7~dBTKjWAsomtR1nNP~a" cx="31.875" cy="27.862" r="50.708" gradientUnits="userSpaceOnUse"><stop offset="0" stop-color="#afeeff"/><stop offset="0" stop-color="#bbf1ff"/><stop offset=".102" stop-color="#c0f2ff"/><stop offset=".703" stop-color="#d7f8ff"/><stop offset="1" stop-color="#e1faff"/></radialGradient><path fill="url(#XA7~dBTKjWAsomtR1nNP~a)" d="M61,45l-2.36,0c-1.311,0-2.506-0.946-2.631-2.251C55.866,41.254,57.034,40,58.5,40h0.34 c1.62,0,3.07-1.22,3.16-2.84c0.08-1.74-1.29-3.16-3-3.16H46.95c0.07-0.37,0.07-0.77-0.04-1.18c-0.3-1.1-1.36-2.82-2.5-2.82H37 V17.81c0.31,0.12,0.65,0.19,1,0.19l20.861,0c1.453,0,2.793-0.972,3.078-2.397C62.322,13.692,60.851,12,59,12l-1.36,0 c-1.311,0-2.506-0.946-2.631-2.251C54.866,8.254,56.034,7,57.5,7c1.6,0,2.85-1.52,2.41-3.18C59.61,2.72,58.55,2,57.41,2H14H7.5 L6.111,2C4.66,2,3.33,2.981,3.057,4.406C2.689,6.323,4.149,8,6,8h0.5C8.433,8,10,9.567,10,11.5v0c0,1.933-1.567,3.5-3.5,3.5 l-2.802,0c-1.895,0-3.594,1.419-3.693,3.312C-0.101,20.33,1.505,22,3.5,22h2C6.881,22,8,23.119,8,24.5v0C8,25.881,6.881,27,5.5,27 l-0.9,0c-1.67,0-3.19,1.129-3.524,2.766C0.615,32.016,2.33,34,4.5,34H21v10H5.6c-1.67,0-3.19,1.13-3.52,2.77 C1.62,49.02,3.33,51,5.5,51l0.86,0c1.311,0,2.506,0.946,2.631,2.251C9.134,54.746,7.966,56,6.5,56H6.16C4.54,56,3.09,57.22,3,58.84 C2.92,60.58,4.29,62,6,62h50.84c1.62,0,3.07-1.22,3.16-2.84c0.08-1.74-1.29-3.16-3-3.16l-0.36,0c-1.311,0-2.506-0.946-2.631-2.251 C53.866,52.254,55.034,51,56.5,51h4.34c1.62,0,3.07-1.22,3.16-2.84C64.08,46.42,62.71,45,61,45z"/><linearGradient id="XA7~dBTKjWAsomtR1nNP~b" x1="32" x2="32" y1=".963" y2="44.168" gradientUnits="userSpaceOnUse"><stop offset="0" stop-color="#00d772"/><stop offset=".746" stop-color="#00b26e"/><stop offset="1" stop-color="#00b26e"/></linearGradient><path fill="url(#XA7~dBTKjWAsomtR1nNP~b)" d="M52.948,25C51.901,37,46,46,32,46s-19.901-9-20.948-21C10.182,15.035,20.431,4,32,4 S53.818,15.035,52.948,25z"/><linearGradient id="XA7~dBTKjWAsomtR1nNP~c" x1="32" x2="32" y1="61.557" y2="29.927" gradientUnits="userSpaceOnUse"><stop offset="0" stop-color="#ffc050"/><stop offset=".004" stop-color="#ffc050"/><stop offset=".043" stop-color="#ffbf61"/><stop offset=".091" stop-color="#ffbe6c"/><stop offset=".159" stop-color="#ffbe73"/><stop offset=".348" stop-color="#ffbe75"/><stop offset="1" stop-color="#ffbd85"/><stop offset="1" stop-color="#ffbd85"/></linearGradient><path fill="url(#XA7~dBTKjWAsomtR1nNP~c)" d="M50,34l-3.746,0.02c0,0-0.012,0.009-0.017,0.013L46.667,25L32,23l-14.667,2l0.413,9.02L14,34 c-4,0-4.71,4.333-3.375,8.008C11.71,45.003,14.19,47,17.333,47c0.349,0,0.698-0.061,1.04-0.161L18.381,47c0,0,3.874,13,13.618,13 s13.62-13,13.62-13l0.008-0.161C45.969,46.939,46.317,47,46.667,47c3.143,0,5.623-1.997,6.708-4.992C54.71,38.333,54,34,50,34z"/><path fill="#fff" d="M40,19c0,1.06-0.21,2.07-0.58,3H24.58C24.21,21.07,24,20.06,24,19c0-4.42,3.58-8,8-8S40,14.58,40,19 z"/><linearGradient id="XA7~dBTKjWAsomtR1nNP~d" x1="25.5" x2="25.5" y1="762.644" y2="779.333" gradientTransform="translate(0 -734)" gradientUnits="userSpaceOnUse"><stop offset=".122" stop-color="#5e6d7b"/><stop offset=".191" stop-color="#5d6b79"/><stop offset="1" stop-color="#515c69"/></linearGradient><ellipse cx="25.5" cy="36.5" fill="url(#XA7~dBTKjWAsomtR1nNP~d)" rx="2.5" ry="3.5"/><linearGradient id="XA7~dBTKjWAsomtR1nNP~e" x1="38.5" x2="38.5" y1="762.644" y2="779.333" gradientTransform="translate(0 -734)" gradientUnits="userSpaceOnUse"><stop offset=".122" stop-color="#5e6d7b"/><stop offset=".191" stop-color="#5d6b79"/><stop offset="1" stop-color="#515c69"/></linearGradient><ellipse cx="38.5" cy="36.5" fill="url(#XA7~dBTKjWAsomtR1nNP~e)" rx="2.5" ry="3.5"/><linearGradient id="XA7~dBTKjWAsomtR1nNP~f" x1="26.5" x2="26.5" y1="44.228" y2="56.665" gradientUnits="userSpaceOnUse"><stop offset=".122" stop-color="#5e6d7b"/><stop offset=".191" stop-color="#5d6b79"/><stop offset="1" stop-color="#515c69"/></linearGradient><path fill="url(#XA7~dBTKjWAsomtR1nNP~f)" d="M35,47c0,4.875-4.627,8.728-9.974,7.883c-3.248-0.513-5.945-2.85-6.754-5.854 c-0.339-1.261-0.349-2.497-0.096-3.646c0.238-1.083,1.685-1.533,2.554-0.789C22.463,46.078,24.886,47,27.562,47 c2.762,0,5.249-0.98,6.991-2.55C34.841,45.25,35,46.11,35,47z"/><linearGradient id="XA7~dBTKjWAsomtR1nNP~g" x1="-421.5" x2="-421.5" y1="44.228" y2="56.665" gradientTransform="matrix(-1 0 0 1 -384 0)" gradientUnits="userSpaceOnUse"><stop offset=".122" stop-color="#5e6d7b"/><stop offset=".191" stop-color="#5d6b79"/><stop offset="1" stop-color="#515c69"/></linearGradient><path fill="url(#XA7~dBTKjWAsomtR1nNP~g)" d="M29,47c0,4.875,4.627,8.728,9.974,7.883c3.248-0.513,5.945-2.85,6.754-5.854 c0.339-1.261,0.349-2.497,0.096-3.646c-0.238-1.083-1.685-1.533-2.554-0.789C41.537,46.078,39.114,47,36.438,47 c-2.762,0-5.249-0.98-6.991-2.55C29.16,45.25,29,46.11,29,47z"/><linearGradient id="XA7~dBTKjWAsomtR1nNP~h" x1="32" x2="32" y1="779.766" y2="748.679" gradientTransform="translate(0 -734)" gradientUnits="userSpaceOnUse"><stop offset="0" stop-color="#ff9757"/><stop offset="1" stop-color="#ffb65b"/><stop offset="1" stop-color="#ffb65b"/></linearGradient><ellipse cx="32" cy="44" fill="url(#XA7~dBTKjWAsomtR1nNP~h)" rx="7.636" ry="6"/><linearGradient id="XA7~dBTKjWAsomtR1nNP~i" x1="17" x2="17" y1="45.707" y2="27.753" gradientUnits="userSpaceOnUse"><stop offset=".122" stop-color="#5e6d7b"/><stop offset=".191" stop-color="#5d6b79"/><stop offset="1" stop-color="#515c69"/></linearGradient><path fill="url(#XA7~dBTKjWAsomtR1nNP~i)" d="M17,42L17,42c-1.105,0-2-0.895-2-2V27h4v13C19,41.105,18.105,42,17,42z"/><linearGradient id="XA7~dBTKjWAsomtR1nNP~j" x1="47" x2="47" y1="45.707" y2="27.753" gradientUnits="userSpaceOnUse"><stop offset=".122" stop-color="#5e6d7b"/><stop offset=".191" stop-color="#5d6b79"/><stop offset="1" stop-color="#515c69"/></linearGradient><path fill="url(#XA7~dBTKjWAsomtR1nNP~j)" d="M47,42L47,42c-1.105,0-2-0.895-2-2V27h4v13C49,41.105,48.105,42,47,42z"/><linearGradient id="XA7~dBTKjWAsomtR1nNP~k" x1="31.811" x2="33.264" y1="23.375" y2="49.817" gradientUnits="userSpaceOnUse"><stop offset="0" stop-color="#00d772"/><stop offset=".189" stop-color="#00d272"/><stop offset=".396" stop-color="#00c570"/><stop offset=".59" stop-color="#00b26e"/><stop offset=".996" stop-color="#00b26e"/></linearGradient><path fill="url(#XA7~dBTKjWAsomtR1nNP~k)" d="M14.514,25.481c2.007-2.276,4.708-4.124,7.737-5.367c3.027-1.262,6.389-1.894,9.748-1.912 c3.36,0.013,6.722,0.645,9.751,1.907c3.031,1.243,5.732,3.093,7.735,5.372c0.826,0.94,0.637,2.297-0.424,3.029 c-0.876,0.605-2.071,0.596-2.927,0.045l-0.067-0.044c-2.136-1.377-4.375-2.468-6.743-3.204C36.958,24.585,34.482,24.19,32,24.2 c-2.483-0.015-4.959,0.38-7.327,1.103c-2.37,0.734-4.609,1.828-6.741,3.208l-0.064,0.042c-1.085,0.703-2.608,0.493-3.401-0.47 C13.81,27.286,13.862,26.222,14.514,25.481z"/><linearGradient id="XA7~dBTKjWAsomtR1nNP~l" x1="38.5" x2="38.5" y1="27" y2="33" gradientUnits="userSpaceOnUse"><stop offset=".122" stop-color="#5e6d7b"/><stop offset=".191" stop-color="#5d6b79"/><stop offset="1" stop-color="#515c69"/></linearGradient><path fill="url(#XA7~dBTKjWAsomtR1nNP~l)" d="M42.084,31.777C40.962,31.227,40,30,38.5,30s-2.496,1.255-3.64,1.806 c-0.266,0.136-0.591,0.031-0.727-0.234c-0.057-0.112-0.072-0.234-0.05-0.349c0.193-0.998,0.63-1.841,1.288-2.621 c0.656-0.734,1.593-1.536,3.128-1.602c1.535,0.065,2.472,0.867,3.128,1.602c0.658,0.78,1.095,1.624,1.288,2.621 c0.057,0.293-0.135,0.576-0.428,0.633c-0.123,0.023-0.245,0.003-0.348-0.049L42.084,31.777z"/><linearGradient id="XA7~dBTKjWAsomtR1nNP~m" x1="-409.5" x2="-409.5" y1="27" y2="33" gradientTransform="matrix(-1 0 0 1 -384 0)" gradientUnits="userSpaceOnUse"><stop offset=".122" stop-color="#5e6d7b"/><stop offset=".191" stop-color="#5d6b79"/><stop offset="1" stop-color="#515c69"/></linearGradient><path fill="url(#XA7~dBTKjWAsomtR1nNP~m)" d="M21.916,31.777C23.038,31.227,24,30,25.5,30s2.496,1.255,3.64,1.806 c0.266,0.136,0.591,0.031,0.727-0.234c0.057-0.112,0.072-0.234,0.05-0.349c-0.193-0.998-0.63-1.841-1.288-2.621 C27.972,27.867,27.035,27.065,25.5,27c-1.535,0.065-2.472,0.867-3.128,1.602c-0.658,0.78-1.095,1.624-1.288,2.621 c-0.057,0.293,0.135,0.576,0.428,0.633c0.123,0.023,0.245,0.003,0.348-0.049L21.916,31.777z"/></svg>